<?xml version="1.0" encoding="iso-8859-1"?>
<!-- Uploaded to: SVG Repo, www.svgrepo.com, Generator: SVG Repo Mixer Tools -->
<!DOCTYPE svg PUBLIC "-//W3C//DTD SVG 1.1//EN" "http://www.w3.org/Graphics/SVG/1.1/DTD/svg11.dtd">
<svg fill="#000000" height="800px" width="800px" version="1.1" id="Capa_1" xmlns="http://www.w3.org/2000/svg" xmlns:xlink="http://www.w3.org/1999/xlink" 
	 viewBox="0 0 411.161 411.161" xml:space="preserve">
<path id="XMLID_880_" d="M83.565,59.354c2.513-3.635,7.496-4.543,11.13-2.032l2.71,1.873V35.76C97.405,16.042,113.447,0,133.166,0
	c18.13,0,33.151,13.561,35.454,31.072l5.883-4.066c3.632-2.512,8.617-1.604,11.13,2.032c2.512,3.635,1.603,8.618-2.032,11.13
	l-14.675,10.143v57.539c0,1.366,1.526,4.75,7.245,8.771c6.912,4.862,16.455,8.008,26.857,8.949V49.254
	c0-19.718,16.042-35.76,35.76-35.76c8.939,0,17.123,3.296,23.398,8.739l15.438-10.669c3.637-2.513,8.618-1.603,11.13,2.033
	c2.512,3.635,1.602,8.618-2.032,11.129l-15.075,10.418c1.114,2.583,1.932,5.326,2.41,8.179l11.271-1.535
	c4.371-0.596,8.41,2.47,9.006,6.847c0.597,4.378-2.47,8.41-6.847,9.006l-12.938,1.762v29.42l6.428-4.443
	c3.635-2.511,8.617-1.604,11.13,2.033c2.512,3.634,1.603,8.617-2.032,11.129l-15.525,10.73v91.614c0,4.418-3.582,8-8,8s-8-3.582-8-8
	v-80.982c-3.262,1.035-6.948-0.12-8.995-3.081c-2.512-3.634-1.603-8.617,2.032-11.129l6.963-4.813v-47.35
	c-0.001-0.082-0.001-0.164,0-0.246v-3.032c0-10.896-8.864-19.76-19.761-19.76c-10.896,0-19.76,8.864-19.76,19.76v84.647
	c0,2.188-0.896,4.28-2.479,5.79c-1.584,1.51-3.716,2.31-5.901,2.201c-0.335-0.016-0.67-0.025-1.01-0.025
	c-16.37,0-31.524-4.318-42.67-12.158c-9.055-6.365-14.042-14.129-14.042-21.859V61.206c-3.449,1.543-7.616,0.464-9.843-2.758
	c-2.512-3.635-1.603-8.618,2.032-11.13l7.811-5.398v-6.16c0-10.896-8.864-19.76-19.76-19.76c-10.896,0-19.761,8.864-19.761,19.76
	v34.494l10.679,7.381c3.635,2.512,4.544,7.495,2.032,11.13c-2.513,3.635-7.495,4.544-11.13,2.032l-1.581-1.093v18.145
	c0,14.379,5.201,27.967,14.943,39.608c0.247,0.254,0.479,0.528,0.695,0.819c4.268,4.951,9.367,9.54,15.246,13.673
	c17.823,12.535,41.031,19.438,65.348,19.438c0.343,0,0.681-0.01,1.019-0.026c2.181-0.104,4.313,0.695,5.896,2.204
	c1.582,1.51,2.477,3.601,2.477,5.787v21.138c0,4.418-3.582,8-8,8s-8-3.582-8-8v-13.255c-25.18-1.162-49.091-8.94-67.941-22.197
	c-5.202-3.658-9.901-7.624-14.078-11.859l-11.816,6.76c-3.837,2.192-8.723,0.862-10.917-2.972
	c-2.193-3.835-0.863-8.723,2.972-10.916l9.449-5.405c-8.695-12.858-13.291-27.419-13.291-42.796V78.646l-11.808-8.161
	C81.962,67.972,81.053,62.989,83.565,59.354z M211.028,312.317c-4.418,0-8,3.582-8,8v17.708c0,19.719,16.042,35.761,35.76,35.761
	c19.719,0,35.761-16.042,35.761-35.761V310.99c0-4.418-3.582-8-8-8s-8,3.582-8,8v27.036c0,10.896-8.864,19.761-19.761,19.761
	c-10.896,0-19.76-8.865-19.76-19.761v-17.708C219.028,315.898,215.446,312.317,211.028,312.317z M61.309,261.565
	c-1.262-6.247,0.86-12.34,5.823-16.718c7.492-6.611,20.495-8.688,35.584-6.05c-2.533-15.106-0.362-28.107,6.311-35.57
	c4.418-4.941,10.536-7.024,16.772-5.722c11.415,2.385,21.643,15.682,28.796,37.441v0c1.051,3.196,1.908,6.219,2.591,9.081
	c7.848-3.582,16.282-6.419,24.965-8.764l-4.747-7.836c-2.29-3.779-1.083-8.698,2.696-10.988c3.778-2.291,8.698-1.082,10.987,2.697
	l7.436,12.272c9.973-2.059,19.985-3.687,29.549-5.242c0,0,10.529-1.701,13.512-2.167c13.131-2.055,28.013-4.383,39.178-7.982
	c10.768-3.471,14.604-7.028,14.604-9.199v-72.088c0-19.719,16.041-35.762,35.759-35.762c4.519,0,8.844,0.842,12.827,2.378
	l5.63-10.649c2.065-3.906,6.904-5.399,10.812-3.333c3.905,2.064,5.398,6.905,3.333,10.811l-6.445,12.192
	c1.191,1.278,2.29,2.643,3.286,4.084l14.554-1.981c4.381-0.597,8.41,2.469,9.006,6.847c0.597,4.378-2.47,8.41-6.848,9.006
	l-10.733,1.462c0.225,1.617,0.341,3.268,0.341,4.945v24.048l3.773-2.608c3.634-2.511,8.618-1.603,11.13,2.032
	s1.603,8.618-2.032,11.13l-12.871,8.896v28.59c0,15.25-3.426,28.55-10.228,39.818l7.377,5.663c3.504,2.69,4.164,7.713,1.474,11.217
	c-2.691,3.504-7.713,4.164-11.218,1.474l-7.481-5.744c-5.715,5.781-12.642,10.817-20.771,15.092
	c-6.715,3.531-13.977,6.426-21.532,8.859l4.996,8.246c2.29,3.779,1.083,8.698-2.696,10.988c-3.78,2.287-8.698,1.082-10.987-2.697
	l-7.328-12.094c-13.106,3.138-26.552,5.324-39.159,7.374c0,0-10.518,1.7-13.455,2.16c-13.111,2.055-27.972,4.383-39.106,7.982
	c-10.734,3.47-14.559,7.037-14.559,9.218v23.652c0,19.719-16.042,35.761-35.761,35.761s-35.762-16.042-35.762-35.761v-23.652
	c0-4.418,3.582-8,8-8s8,3.582,8,8v23.652c0,10.896,8.865,19.761,19.762,19.761s19.761-8.865,19.761-19.761v-23.652
	c0-22.479,35.695-28.072,67.188-33.007c2.899-0.454,13.364-2.145,13.364-2.145c14.391-2.34,29.349-4.771,43.287-8.46
	c0.116-0.034,0.232-0.064,0.35-0.093c16.987-4.527,32.439-10.94,43.472-21.354l-7.919-6.08c-3.504-2.691-4.164-7.713-1.474-11.217
	c2.69-3.505,7.712-4.165,11.218-1.474l8.061,6.189c4.544-8.106,7.128-17.925,7.128-29.915v-17.531l-0.518,0.358
	c-3.632,2.512-8.617,1.604-11.13-2.032c-2.512-3.635-1.603-8.618,2.032-11.13l9.615-6.646v-35.107
	c0-10.896-8.865-19.762-19.762-19.762c-10.896,0-19.759,8.865-19.759,19.762v72.088c0,22.458-35.759,28.053-67.309,32.989
	c-2.943,0.46-13.417,2.152-13.417,2.152c-24.021,3.906-51.037,8.301-71.248,18.783c0.082,13.07-4.44,21.027-9.225,25.78
	c-7.354,7.306-22.277,13.948-51.604,4.094C76.85,283.317,63.62,273.001,61.309,261.565z M76.993,258.396
	c0.606,3.002,6.961,10.429,26.668,17.053c16.6,5.578,29.439,5.476,35.23-0.277c5.791-5.754,5.975-18.594,0.505-35.228c0,0,0,0,0,0
	c-6.493-19.749-13.873-26.15-16.868-26.776c-0.401-0.081-0.778-0.164-1.573,0.724c-3.132,3.503-5.624,15.306,0.348,33.467
	c0.946,2.876,0.187,6.041-1.961,8.174c-2.148,2.134-5.316,2.874-8.188,1.908c-8.207-2.758-15.119-3.776-20.55-3.776
	c-6.563,0-10.966,1.485-12.887,3.18C76.836,257.622,76.912,257.998,76.993,258.396z M366.739,341.203
	c-15.554-5.474-37.729-10.102-64.128-13.384c-4.399-0.548-8.382,2.568-8.926,6.952c-0.546,4.384,2.567,8.38,6.951,8.926
	c62.324,7.749,78.117,19.977,79.106,23.028c-0.823,2.58-11.469,11.158-49.82,18.488c-33.565,6.415-77.725,9.948-124.343,9.948
	c-46.617,0-90.775-3.533-124.341-9.948c-38.354-7.331-48.998-15.91-49.82-18.489c0.842-2.647,11.861-11.437,51.651-18.832
	c4.344-0.807,7.211-4.983,6.403-9.327c-0.808-4.343-4.978-7.21-9.327-6.403c-43.566,8.097-64.745,19.402-64.745,34.563
	c0,14.569,19.558,25.563,59.79,33.609c34.911,6.982,81.217,10.828,130.389,10.828c49.173,0,95.479-3.845,130.39-10.828
	c40.233-8.047,59.791-19.041,59.791-33.609C395.76,356.423,386.267,348.076,366.739,341.203z"/>
</svg>